<svg xmlns="http://www.w3.org/2000/svg" width="460" height="1540" viewBox="0 0 460 1540" role="img" aria-labelledby="title description">
<title id="title">FolioRecall：离线页面建库与在线查询检索</title>
<desc id="description">离线使用 Qwen3-VL-Embedding-2B 将文档页面编码为 2048 维单位向量，保存至 FAISS 索引；在线由公开 NanoVDR ML 学生编码原始英文查询，CPU 内积检索返回排序页面与 JSON。预览文件独立保存，启动时校验教师与索引身份。页面图形及向量单元仅为示意。</desc>
<defs>
<style>text{font-family:Arial,"Microsoft YaHei","PingFang SC","Noto Sans CJK SC",sans-serif} .math{font-family:"Cambria Math",Cambria,"Times New Roman",serif;font-style:italic} .edge{fill:none;stroke-width:1.7;stroke-linejoin:round;stroke-linecap:round}</style>
<marker id="a-ink" viewBox="0 0 10 8" refX="9" refY="4" markerWidth="6" markerHeight="5" orient="auto-start-reverse"><path d="M0 0 10 4 0 8z" fill="#e2e8ee"/></marker>
<marker id="a-purple" viewBox="0 0 10 8" refX="9" refY="4" markerWidth="6" markerHeight="5" orient="auto-start-reverse"><path d="M0 0 10 4 0 8z" fill="#bba6df"/></marker>
<marker id="a-teal" viewBox="0 0 10 8" refX="9" refY="4" markerWidth="6" markerHeight="5" orient="auto-start-reverse"><path d="M0 0 10 4 0 8z" fill="#85c2af"/></marker>
<marker id="a-blue" viewBox="0 0 10 8" refX="9" refY="4" markerWidth="6" markerHeight="5" orient="auto-start-reverse"><path d="M0 0 10 4 0 8z" fill="#91b7d6"/></marker>
<marker id="a-muted" viewBox="0 0 10 8" refX="9" refY="4" markerWidth="6" markerHeight="5" orient="auto-start-reverse"><path d="M0 0 10 4 0 8z" fill="#a4b0ba"/></marker>
</defs>
<rect width="460" height="1540" fill="#0d1117"/>
<text x="20" y="32" fill="#e2e8ee" font-size="22" font-weight="700" text-anchor="start">(a)</text>
<text x="59" y="32" fill="#e2e8ee" font-size="20" font-weight="600" text-anchor="start">离线页面建库</text>
<path d="M20 47H440" fill="none" stroke="#33424d" stroke-width="1" stroke-linecap="round" stroke-linejoin="round"/>
<g transform="translate(67,83) scale(0.69)">
<rect x="13" y="-12" width="124" height="162" rx="2" fill="#1e2a34" stroke="#33424d" stroke-width="1.3"/>
<rect x="7" y="-6" width="124" height="162" rx="2" fill="#17212b" stroke="#33424d" stroke-width="1.3"/>
<rect x="0" y="0" width="124" height="162" rx="2" fill="#17212b" stroke="#a4b0ba" stroke-width="1.2"/>
<rect x="12" y="12" width="57" height="5" rx="0" fill="#91b7d6" stroke="#91b7d6" stroke-width="0"/>
<rect x="12" y="23" width="88" height="3" rx="0" fill="#33424d" stroke="#33424d" stroke-width="0"/>
<rect x="12" y="37" width="100" height="65" rx="0" fill="#1e2a34" stroke="#33424d" stroke-width="0.7"/>
<path d="M22 44V91H103" fill="none" stroke="#a4b0ba" stroke-width="0.8" stroke-linecap="round" stroke-linejoin="round"/>
<path d="M23 80 39 74 55 78 72 64 87 59 103 49" fill="none" stroke="#91b7d6" stroke-width="2" stroke-linecap="round" stroke-linejoin="round"/>
<path d="M23 86 39 83 55 83 72 77 87 73 103 66" fill="none" stroke="#73618d" stroke-width="1.5" stroke-linecap="round" stroke-linejoin="round"/>
<path d="M12 115H55 M64 115H111" fill="none" stroke="#33424d" stroke-width="2" stroke-linecap="round" stroke-linejoin="round"/>
<path d="M12 124H55 M64 124H111" fill="none" stroke="#33424d" stroke-width="2" stroke-linecap="round" stroke-linejoin="round"/>
<path d="M12 133H55 M64 133H111" fill="none" stroke="#33424d" stroke-width="2" stroke-linecap="round" stroke-linejoin="round"/>
<path d="M12 142H55 M64 142H111" fill="none" stroke="#33424d" stroke-width="2" stroke-linecap="round" stroke-linejoin="round"/>
</g>
<text x="222" y="115" fill="#e2e8ee" font-size="19" font-weight="600" text-anchor="start">文档页面</text>
<text x="222" y="141" fill="#a4b0ba" font-size="15" font-weight="400" text-anchor="start">PDF / 页面图像</text>
<text x="222" y="166" fill="#a4b0ba" font-size="15" font-weight="400" text-anchor="start">单独保存预览文件</text>
<path d="M109 204V237" fill="none" stroke="#e2e8ee" stroke-width="1.7" stroke-linecap="round" stroke-linejoin="round" marker-end="url(#a-ink)"/>
<rect x="51" y="248" width="140" height="81" rx="3" fill="#302a40" stroke="#bba6df" stroke-width="0.9"/>
<rect x="45" y="254" width="140" height="81" rx="3" fill="#302a40" stroke="#bba6df" stroke-width="0.9"/>
<rect x="39" y="260" width="140" height="81" rx="3" fill="#302a40" stroke="#bba6df" stroke-width="1.5"/>
<text x="109.0" y="294.83" fill="#bba6df" font-size="30" font-weight="400" text-anchor="middle" class="math">f<tspan baseline-shift="sub" font-size="70%">θ</tspan></text>
<text x="109.0" y="326.42" fill="#bba6df" font-size="17" font-weight="600" text-anchor="middle">Qwen3-VL</text>
<text x="222" y="273" fill="#e2e8ee" font-size="19" font-weight="600" text-anchor="start">页面教师</text>
<text x="222" y="299" fill="#a4b0ba" font-size="14" font-weight="400" text-anchor="start">Qwen3-VL-Embedding-2B</text>
<text x="222" y="325" fill="#a4b0ba" font-size="15" font-weight="400" text-anchor="start">GPU BF16</text>
<path d="M109 351V385" fill="none" stroke="#e2e8ee" stroke-width="1.7" stroke-linecap="round" stroke-linejoin="round" marker-end="url(#a-ink)"/>
<rect x="54.5" y="398.5" width="11.0" height="12.666666666666666" rx="1" fill="#302a40" stroke="#bba6df" stroke-width="0.55"/>
<rect x="54.5" y="398.5" width="11.0" height="12.666666666666666" rx="1" fill="#bba6df" opacity="0.320"/>
<rect x="68.5" y="398.5" width="11.0" height="12.666666666666666" rx="1" fill="#302a40" stroke="#bba6df" stroke-width="0.55"/>
<rect x="68.5" y="398.5" width="11.0" height="12.666666666666666" rx="1" fill="#bba6df" opacity="0.485"/>
<rect x="82.5" y="398.5" width="11.0" height="12.666666666666666" rx="1" fill="#302a40" stroke="#bba6df" stroke-width="0.55"/>
<rect x="82.5" y="398.5" width="11.0" height="12.666666666666666" rx="1" fill="#bba6df" opacity="0.155"/>
<rect x="96.5" y="398.5" width="11.0" height="12.666666666666666" rx="1" fill="#302a40" stroke="#bba6df" stroke-width="0.55"/>
<rect x="96.5" y="398.5" width="11.0" height="12.666666666666666" rx="1" fill="#bba6df" opacity="0.320"/>
<rect x="110.5" y="398.5" width="11.0" height="12.666666666666666" rx="1" fill="#302a40" stroke="#bba6df" stroke-width="0.55"/>
<rect x="110.5" y="398.5" width="11.0" height="12.666666666666666" rx="1" fill="#bba6df" opacity="0.485"/>
<rect x="124.5" y="398.5" width="11.0" height="12.666666666666666" rx="1" fill="#302a40" stroke="#bba6df" stroke-width="0.55"/>
<rect x="124.5" y="398.5" width="11.0" height="12.666666666666666" rx="1" fill="#bba6df" opacity="0.155"/>
<rect x="138.5" y="398.5" width="11.0" height="12.666666666666666" rx="1" fill="#302a40" stroke="#bba6df" stroke-width="0.55"/>
<rect x="138.5" y="398.5" width="11.0" height="12.666666666666666" rx="1" fill="#bba6df" opacity="0.320"/>
<rect x="152.5" y="398.5" width="11.0" height="12.666666666666666" rx="1" fill="#302a40" stroke="#bba6df" stroke-width="0.55"/>
<rect x="152.5" y="398.5" width="11.0" height="12.666666666666666" rx="1" fill="#bba6df" opacity="0.485"/>
<rect x="54.5" y="414.1666666666667" width="11.0" height="12.666666666666666" rx="1" fill="#302a40" stroke="#bba6df" stroke-width="0.55"/>
<rect x="54.5" y="414.1666666666667" width="11.0" height="12.666666666666666" rx="1" fill="#bba6df" opacity="0.210"/>
<rect x="68.5" y="414.1666666666667" width="11.0" height="12.666666666666666" rx="1" fill="#302a40" stroke="#bba6df" stroke-width="0.55"/>
<rect x="68.5" y="414.1666666666667" width="11.0" height="12.666666666666666" rx="1" fill="#bba6df" opacity="0.375"/>
<rect x="82.5" y="414.1666666666667" width="11.0" height="12.666666666666666" rx="1" fill="#302a40" stroke="#bba6df" stroke-width="0.55"/>
<rect x="82.5" y="414.1666666666667" width="11.0" height="12.666666666666666" rx="1" fill="#bba6df" opacity="0.540"/>
<rect x="96.5" y="414.1666666666667" width="11.0" height="12.666666666666666" rx="1" fill="#302a40" stroke="#bba6df" stroke-width="0.55"/>
<rect x="96.5" y="414.1666666666667" width="11.0" height="12.666666666666666" rx="1" fill="#bba6df" opacity="0.210"/>
<rect x="110.5" y="414.1666666666667" width="11.0" height="12.666666666666666" rx="1" fill="#302a40" stroke="#bba6df" stroke-width="0.55"/>
<rect x="110.5" y="414.1666666666667" width="11.0" height="12.666666666666666" rx="1" fill="#bba6df" opacity="0.375"/>
<rect x="124.5" y="414.1666666666667" width="11.0" height="12.666666666666666" rx="1" fill="#302a40" stroke="#bba6df" stroke-width="0.55"/>
<rect x="124.5" y="414.1666666666667" width="11.0" height="12.666666666666666" rx="1" fill="#bba6df" opacity="0.540"/>
<rect x="138.5" y="414.1666666666667" width="11.0" height="12.666666666666666" rx="1" fill="#302a40" stroke="#bba6df" stroke-width="0.55"/>
<rect x="138.5" y="414.1666666666667" width="11.0" height="12.666666666666666" rx="1" fill="#bba6df" opacity="0.210"/>
<rect x="152.5" y="414.1666666666667" width="11.0" height="12.666666666666666" rx="1" fill="#302a40" stroke="#bba6df" stroke-width="0.55"/>
<rect x="152.5" y="414.1666666666667" width="11.0" height="12.666666666666666" rx="1" fill="#bba6df" opacity="0.375"/>
<rect x="54.5" y="429.8333333333333" width="11.0" height="12.666666666666666" rx="1" fill="#302a40" stroke="#bba6df" stroke-width="0.55"/>
<rect x="54.5" y="429.8333333333333" width="11.0" height="12.666666666666666" rx="1" fill="#bba6df" opacity="0.100"/>
<rect x="68.5" y="429.8333333333333" width="11.0" height="12.666666666666666" rx="1" fill="#302a40" stroke="#bba6df" stroke-width="0.55"/>
<rect x="68.5" y="429.8333333333333" width="11.0" height="12.666666666666666" rx="1" fill="#bba6df" opacity="0.265"/>
<rect x="82.5" y="429.8333333333333" width="11.0" height="12.666666666666666" rx="1" fill="#302a40" stroke="#bba6df" stroke-width="0.55"/>
<rect x="82.5" y="429.8333333333333" width="11.0" height="12.666666666666666" rx="1" fill="#bba6df" opacity="0.430"/>
<rect x="96.5" y="429.8333333333333" width="11.0" height="12.666666666666666" rx="1" fill="#302a40" stroke="#bba6df" stroke-width="0.55"/>
<rect x="96.5" y="429.8333333333333" width="11.0" height="12.666666666666666" rx="1" fill="#bba6df" opacity="0.100"/>
<rect x="110.5" y="429.8333333333333" width="11.0" height="12.666666666666666" rx="1" fill="#302a40" stroke="#bba6df" stroke-width="0.55"/>
<rect x="110.5" y="429.8333333333333" width="11.0" height="12.666666666666666" rx="1" fill="#bba6df" opacity="0.265"/>
<rect x="124.5" y="429.8333333333333" width="11.0" height="12.666666666666666" rx="1" fill="#302a40" stroke="#bba6df" stroke-width="0.55"/>
<rect x="124.5" y="429.8333333333333" width="11.0" height="12.666666666666666" rx="1" fill="#bba6df" opacity="0.430"/>
<rect x="138.5" y="429.8333333333333" width="11.0" height="12.666666666666666" rx="1" fill="#302a40" stroke="#bba6df" stroke-width="0.55"/>
<rect x="138.5" y="429.8333333333333" width="11.0" height="12.666666666666666" rx="1" fill="#bba6df" opacity="0.100"/>
<rect x="152.5" y="429.8333333333333" width="11.0" height="12.666666666666666" rx="1" fill="#302a40" stroke="#bba6df" stroke-width="0.55"/>
<rect x="152.5" y="429.8333333333333" width="11.0" height="12.666666666666666" rx="1" fill="#bba6df" opacity="0.265"/>
<rect x="54.5" y="445.5" width="11.0" height="12.666666666666666" rx="1" fill="#302a40" stroke="#bba6df" stroke-width="0.55"/>
<rect x="54.5" y="445.5" width="11.0" height="12.666666666666666" rx="1" fill="#bba6df" opacity="0.485"/>
<rect x="68.5" y="445.5" width="11.0" height="12.666666666666666" rx="1" fill="#302a40" stroke="#bba6df" stroke-width="0.55"/>
<rect x="68.5" y="445.5" width="11.0" height="12.666666666666666" rx="1" fill="#bba6df" opacity="0.155"/>
<rect x="82.5" y="445.5" width="11.0" height="12.666666666666666" rx="1" fill="#302a40" stroke="#bba6df" stroke-width="0.55"/>
<rect x="82.5" y="445.5" width="11.0" height="12.666666666666666" rx="1" fill="#bba6df" opacity="0.320"/>
<rect x="96.5" y="445.5" width="11.0" height="12.666666666666666" rx="1" fill="#302a40" stroke="#bba6df" stroke-width="0.55"/>
<rect x="96.5" y="445.5" width="11.0" height="12.666666666666666" rx="1" fill="#bba6df" opacity="0.485"/>
<rect x="110.5" y="445.5" width="11.0" height="12.666666666666666" rx="1" fill="#302a40" stroke="#bba6df" stroke-width="0.55"/>
<rect x="110.5" y="445.5" width="11.0" height="12.666666666666666" rx="1" fill="#bba6df" opacity="0.155"/>
<rect x="124.5" y="445.5" width="11.0" height="12.666666666666666" rx="1" fill="#302a40" stroke="#bba6df" stroke-width="0.55"/>
<rect x="124.5" y="445.5" width="11.0" height="12.666666666666666" rx="1" fill="#bba6df" opacity="0.320"/>
<rect x="138.5" y="445.5" width="11.0" height="12.666666666666666" rx="1" fill="#302a40" stroke="#bba6df" stroke-width="0.55"/>
<rect x="138.5" y="445.5" width="11.0" height="12.666666666666666" rx="1" fill="#bba6df" opacity="0.485"/>
<rect x="152.5" y="445.5" width="11.0" height="12.666666666666666" rx="1" fill="#302a40" stroke="#bba6df" stroke-width="0.55"/>
<rect x="152.5" y="445.5" width="11.0" height="12.666666666666666" rx="1" fill="#bba6df" opacity="0.155"/>
<rect x="54.5" y="461.1666666666667" width="11.0" height="12.666666666666666" rx="1" fill="#302a40" stroke="#bba6df" stroke-width="0.55"/>
<rect x="54.5" y="461.1666666666667" width="11.0" height="12.666666666666666" rx="1" fill="#bba6df" opacity="0.375"/>
<rect x="68.5" y="461.1666666666667" width="11.0" height="12.666666666666666" rx="1" fill="#302a40" stroke="#bba6df" stroke-width="0.55"/>
<rect x="68.5" y="461.1666666666667" width="11.0" height="12.666666666666666" rx="1" fill="#bba6df" opacity="0.540"/>
<rect x="82.5" y="461.1666666666667" width="11.0" height="12.666666666666666" rx="1" fill="#302a40" stroke="#bba6df" stroke-width="0.55"/>
<rect x="82.5" y="461.1666666666667" width="11.0" height="12.666666666666666" rx="1" fill="#bba6df" opacity="0.210"/>
<rect x="96.5" y="461.1666666666667" width="11.0" height="12.666666666666666" rx="1" fill="#302a40" stroke="#bba6df" stroke-width="0.55"/>
<rect x="96.5" y="461.1666666666667" width="11.0" height="12.666666666666666" rx="1" fill="#bba6df" opacity="0.375"/>
<rect x="110.5" y="461.1666666666667" width="11.0" height="12.666666666666666" rx="1" fill="#302a40" stroke="#bba6df" stroke-width="0.55"/>
<rect x="110.5" y="461.1666666666667" width="11.0" height="12.666666666666666" rx="1" fill="#bba6df" opacity="0.540"/>
<rect x="124.5" y="461.1666666666667" width="11.0" height="12.666666666666666" rx="1" fill="#302a40" stroke="#bba6df" stroke-width="0.55"/>
<rect x="124.5" y="461.1666666666667" width="11.0" height="12.666666666666666" rx="1" fill="#bba6df" opacity="0.210"/>
<rect x="138.5" y="461.1666666666667" width="11.0" height="12.666666666666666" rx="1" fill="#302a40" stroke="#bba6df" stroke-width="0.55"/>
<rect x="138.5" y="461.1666666666667" width="11.0" height="12.666666666666666" rx="1" fill="#bba6df" opacity="0.375"/>
<rect x="152.5" y="461.1666666666667" width="11.0" height="12.666666666666666" rx="1" fill="#302a40" stroke="#bba6df" stroke-width="0.55"/>
<rect x="152.5" y="461.1666666666667" width="11.0" height="12.666666666666666" rx="1" fill="#bba6df" opacity="0.540"/>
<rect x="54.5" y="476.8333333333333" width="11.0" height="12.666666666666666" rx="1" fill="#302a40" stroke="#bba6df" stroke-width="0.55"/>
<rect x="54.5" y="476.8333333333333" width="11.0" height="12.666666666666666" rx="1" fill="#bba6df" opacity="0.265"/>
<rect x="68.5" y="476.8333333333333" width="11.0" height="12.666666666666666" rx="1" fill="#302a40" stroke="#bba6df" stroke-width="0.55"/>
<rect x="68.5" y="476.8333333333333" width="11.0" height="12.666666666666666" rx="1" fill="#bba6df" opacity="0.430"/>
<rect x="82.5" y="476.8333333333333" width="11.0" height="12.666666666666666" rx="1" fill="#302a40" stroke="#bba6df" stroke-width="0.55"/>
<rect x="82.5" y="476.8333333333333" width="11.0" height="12.666666666666666" rx="1" fill="#bba6df" opacity="0.100"/>
<rect x="96.5" y="476.8333333333333" width="11.0" height="12.666666666666666" rx="1" fill="#302a40" stroke="#bba6df" stroke-width="0.55"/>
<rect x="96.5" y="476.8333333333333" width="11.0" height="12.666666666666666" rx="1" fill="#bba6df" opacity="0.265"/>
<rect x="110.5" y="476.8333333333333" width="11.0" height="12.666666666666666" rx="1" fill="#302a40" stroke="#bba6df" stroke-width="0.55"/>
<rect x="110.5" y="476.8333333333333" width="11.0" height="12.666666666666666" rx="1" fill="#bba6df" opacity="0.430"/>
<rect x="124.5" y="476.8333333333333" width="11.0" height="12.666666666666666" rx="1" fill="#302a40" stroke="#bba6df" stroke-width="0.55"/>
<rect x="124.5" y="476.8333333333333" width="11.0" height="12.666666666666666" rx="1" fill="#bba6df" opacity="0.100"/>
<rect x="138.5" y="476.8333333333333" width="11.0" height="12.666666666666666" rx="1" fill="#302a40" stroke="#bba6df" stroke-width="0.55"/>
<rect x="138.5" y="476.8333333333333" width="11.0" height="12.666666666666666" rx="1" fill="#bba6df" opacity="0.265"/>
<rect x="152.5" y="476.8333333333333" width="11.0" height="12.666666666666666" rx="1" fill="#302a40" stroke="#bba6df" stroke-width="0.55"/>
<rect x="152.5" y="476.8333333333333" width="11.0" height="12.666666666666666" rx="1" fill="#bba6df" opacity="0.430"/>
<path d="M46 394h-5v100h5 M172 394h5v100h-5" fill="none" stroke="#bba6df" stroke-width="1" stroke-linecap="round" stroke-linejoin="round"/>
<text x="222" y="430" fill="#e2e8ee" font-size="19" font-weight="600" text-anchor="start">页面向量</text>
<text x="222" y="459" fill="#bba6df" font-size="18" font-weight="400" text-anchor="start" class="math">dᵢ = <tspan font-style="normal">normalize</tspan>(f<tspan baseline-shift="sub" font-size="70%">θ</tspan>(Iᵢ))</text>
<path d="M109 501V530" fill="none" stroke="#e2e8ee" stroke-width="1.7" stroke-linecap="round" stroke-linejoin="round" marker-end="url(#a-ink)"/>
<path d="M38 556 C38 536,180 536,180 556 V630 C180 650,38 650,38 630Z" fill="#213447" stroke="#91b7d6" stroke-width="1.4"/>
<path d="M38 556 C38 576,180 576,180 556" fill="none" stroke="#91b7d6" stroke-width="1" stroke-linecap="round" stroke-linejoin="round"/>
<text x="109.0" y="598" fill="#91b7d6" font-size="19" font-weight="600" text-anchor="middle">页面索引</text>
<text x="109.0" y="623" fill="#91b7d6" font-size="14" font-weight="400" text-anchor="middle">向量与页面 ID</text>
<text x="222" y="568" fill="#e2e8ee" font-size="18" font-weight="600" text-anchor="start">已保存的 FAISS 索引</text>
<text x="222" y="594" fill="#a4b0ba" font-size="15" font-weight="400" text-anchor="start">元数据与</text>
<text x="222" y="616" fill="#a4b0ba" font-size="15" font-weight="400" text-anchor="start">编码器身份</text>
<text x="20" y="694" fill="#e2e8ee" font-size="22" font-weight="700" text-anchor="start">(b)</text>
<text x="59" y="694" fill="#e2e8ee" font-size="20" font-weight="600" text-anchor="start">在线查询检索</text>
<path d="M20 709H440" fill="none" stroke="#33424d" stroke-width="1" stroke-linecap="round" stroke-linejoin="round"/>
<rect x="37" y="749" width="153" height="75" rx="3" fill="#1e2a34" stroke="#33424d" stroke-width="1.3"/>
<text x="52" y="781" fill="#e2e8ee" font-size="19" font-weight="600" text-anchor="start">英文查询</text>
<text x="52" y="807" fill="#a4b0ba" font-size="16" font-weight="400" text-anchor="start">原始文本</text>
<text x="168" y="808" fill="#85c2af" font-size="23" font-weight="400" text-anchor="end" class="math">t</text>
<text x="222" y="774" fill="#e2e8ee" font-size="18" font-weight="600" text-anchor="start">原始英文文本</text>
<text x="222" y="800" fill="#a4b0ba" font-size="15" font-weight="400" text-anchor="start">不添加教师提示词</text>
<path d="M109 834V868" fill="none" stroke="#e2e8ee" stroke-width="1.7" stroke-linecap="round" stroke-linejoin="round" marker-end="url(#a-ink)"/>
<rect x="64" y="878" width="121" height="73" rx="3" fill="#203a34" stroke="#85c2af" stroke-width="0.9"/>
<rect x="58" y="884" width="121" height="73" rx="3" fill="#203a34" stroke="#85c2af" stroke-width="0.9"/>
<rect x="52" y="890" width="121" height="73" rx="3" fill="#203a34" stroke="#85c2af" stroke-width="1.5"/>
<text x="112.5" y="917.74" fill="#85c2af" font-size="27" font-weight="400" text-anchor="middle" class="math">g<tspan baseline-shift="sub" font-size="70%">φ</tspan></text>
<text x="112.5" y="949.86" fill="#85c2af" font-size="17" font-weight="600" text-anchor="middle">NanoVDR ML</text>
<text x="222" y="905" fill="#e2e8ee" font-size="18" font-weight="600" text-anchor="start">公开 ML 学生</text>
<text x="222" y="931" fill="#a4b0ba" font-size="15" font-weight="400" text-anchor="start">GPU BF16 / CPU FP32</text>
<path d="M109 973V1006" fill="none" stroke="#e2e8ee" stroke-width="1.7" stroke-linecap="round" stroke-linejoin="round" marker-end="url(#a-ink)"/>
<rect x="54.5" y="1019.5" width="11.0" height="26.0" rx="1" fill="#203a34" stroke="#85c2af" stroke-width="0.55"/>
<rect x="54.5" y="1019.5" width="11.0" height="26.0" rx="1" fill="#85c2af" opacity="0.320"/>
<rect x="68.5" y="1019.5" width="11.0" height="26.0" rx="1" fill="#203a34" stroke="#85c2af" stroke-width="0.55"/>
<rect x="68.5" y="1019.5" width="11.0" height="26.0" rx="1" fill="#85c2af" opacity="0.485"/>
<rect x="82.5" y="1019.5" width="11.0" height="26.0" rx="1" fill="#203a34" stroke="#85c2af" stroke-width="0.55"/>
<rect x="82.5" y="1019.5" width="11.0" height="26.0" rx="1" fill="#85c2af" opacity="0.155"/>
<rect x="96.5" y="1019.5" width="11.0" height="26.0" rx="1" fill="#203a34" stroke="#85c2af" stroke-width="0.55"/>
<rect x="96.5" y="1019.5" width="11.0" height="26.0" rx="1" fill="#85c2af" opacity="0.320"/>
<rect x="110.5" y="1019.5" width="11.0" height="26.0" rx="1" fill="#203a34" stroke="#85c2af" stroke-width="0.55"/>
<rect x="110.5" y="1019.5" width="11.0" height="26.0" rx="1" fill="#85c2af" opacity="0.485"/>
<rect x="124.5" y="1019.5" width="11.0" height="26.0" rx="1" fill="#203a34" stroke="#85c2af" stroke-width="0.55"/>
<rect x="124.5" y="1019.5" width="11.0" height="26.0" rx="1" fill="#85c2af" opacity="0.155"/>
<rect x="138.5" y="1019.5" width="11.0" height="26.0" rx="1" fill="#203a34" stroke="#85c2af" stroke-width="0.55"/>
<rect x="138.5" y="1019.5" width="11.0" height="26.0" rx="1" fill="#85c2af" opacity="0.320"/>
<rect x="152.5" y="1019.5" width="11.0" height="26.0" rx="1" fill="#203a34" stroke="#85c2af" stroke-width="0.55"/>
<rect x="152.5" y="1019.5" width="11.0" height="26.0" rx="1" fill="#85c2af" opacity="0.485"/>
<path d="M46 1015h-5v35h5 M172 1015h5v35h-5" fill="none" stroke="#85c2af" stroke-width="1" stroke-linecap="round" stroke-linejoin="round"/>
<text x="222" y="1027" fill="#e2e8ee" font-size="19" font-weight="600" text-anchor="start">查询向量</text>
<text x="222" y="1055" fill="#85c2af" font-size="18" font-weight="400" text-anchor="start" class="math">q = <tspan font-style="normal">normalize</tspan>(g<tspan baseline-shift="sub" font-size="70%">φ</tspan>(t))</text>
<path d="M109 1060V1104" fill="none" stroke="#e2e8ee" stroke-width="1.7" stroke-linecap="round" stroke-linejoin="round" marker-end="url(#a-ink)"/>
<rect x="33" y="1118" width="155" height="97" rx="3" fill="#213447" stroke="#91b7d6" stroke-width="1.4"/>
<text x="110.5" y="1155" fill="#91b7d6" font-size="25" font-weight="400" text-anchor="middle" class="math">sᵢ = qᵀ dᵢ</text>
<text x="110.5" y="1188" fill="#91b7d6" font-size="16" font-weight="400" text-anchor="middle">内积排序 · Top-k</text>
<text x="222" y="1149" fill="#e2e8ee" font-size="19" font-weight="600" text-anchor="start">CPU 检索</text>
<text x="222" y="1175" fill="#a4b0ba" font-size="15" font-weight="400" text-anchor="start">FAISS IndexFlatIP</text>
<text x="222" y="1199" fill="#91b7d6" font-size="15" font-weight="400" text-anchor="start">复用页面索引</text>
<path d="M38 596H12V1164H30" fill="none" stroke="#91b7d6" stroke-width="1.3" stroke-linecap="round" stroke-linejoin="round" marker-end="url(#a-blue)"/>
<path d="M109 1225V1260" fill="none" stroke="#e2e8ee" stroke-width="1.7" stroke-linecap="round" stroke-linejoin="round" marker-end="url(#a-ink)"/>
<g transform="translate(67,1277) scale(0.68)">
<rect x="13" y="-12" width="124" height="162" rx="2" fill="#1e2a34" stroke="#33424d" stroke-width="1.3"/>
<rect x="7" y="-6" width="124" height="162" rx="2" fill="#17212b" stroke="#33424d" stroke-width="1.3"/>
<rect x="0" y="0" width="124" height="162" rx="2" fill="#17212b" stroke="#a4b0ba" stroke-width="1.2"/>
<rect x="12" y="12" width="57" height="5" rx="0" fill="#85c2af" stroke="#85c2af" stroke-width="0"/>
<rect x="12" y="23" width="88" height="3" rx="0" fill="#33424d" stroke="#33424d" stroke-width="0"/>
<rect x="12" y="37" width="100" height="65" rx="0" fill="#1e2a34" stroke="#33424d" stroke-width="0.7"/>
<path d="M22 44V91H103" fill="none" stroke="#a4b0ba" stroke-width="0.8" stroke-linecap="round" stroke-linejoin="round"/>
<path d="M23 80 39 74 55 78 72 64 87 59 103 49" fill="none" stroke="#85c2af" stroke-width="2" stroke-linecap="round" stroke-linejoin="round"/>
<path d="M23 86 39 83 55 83 72 77 87 73 103 66" fill="none" stroke="#568a7a" stroke-width="1.5" stroke-linecap="round" stroke-linejoin="round"/>
<path d="M12 115H55 M64 115H111" fill="none" stroke="#33424d" stroke-width="2" stroke-linecap="round" stroke-linejoin="round"/>
<path d="M12 124H55 M64 124H111" fill="none" stroke="#33424d" stroke-width="2" stroke-linecap="round" stroke-linejoin="round"/>
<path d="M12 133H55 M64 133H111" fill="none" stroke="#33424d" stroke-width="2" stroke-linecap="round" stroke-linejoin="round"/>
<path d="M12 142H55 M64 142H111" fill="none" stroke="#33424d" stroke-width="2" stroke-linecap="round" stroke-linejoin="round"/>
</g>
<text x="222" y="1299" fill="#e2e8ee" font-size="19" font-weight="600" text-anchor="start">排序后的页面</text>
<text x="222" y="1325" fill="#a4b0ba" font-size="14" font-weight="400" text-anchor="start">文档来源 · 物理页码</text>
<text x="222" y="1351" fill="#a4b0ba" font-size="15" font-weight="400" text-anchor="start">预览文件与 JSON</text>
<text x="222" y="1377" fill="#a4b0ba" font-size="14" font-weight="400" text-anchor="start">展示时读取预览文件</text>
<path d="M20 1411H440" fill="none" stroke="#33424d" stroke-width="1" stroke-linecap="round" stroke-linejoin="round"/>
<text x="20" y="1440" fill="#a4b0ba" font-size="16" font-weight="400" text-anchor="start">dᵢ, q：2048 维单位向量</text>
<text x="20" y="1468" fill="#a4b0ba" font-size="15" font-weight="400" text-anchor="start">启动时校验教师与索引身份</text>
<text x="20" y="1496" fill="#a4b0ba" font-size="14" font-weight="400" text-anchor="start">页面布局与向量单元均为示意。</text>
<text x="20" y="1520" fill="#a4b0ba" font-size="14" font-weight="400" text-anchor="start">蓝色实线：复用已保存的页面索引。</text>
</svg>
